Storyline

Holly Rowe's retiring, kissing her callgirl life goodbye. She just has to get through her last night on the job. Shay Ryan's a teenage runaway, broke and alone. She just has to get through her first night as a hooker. Then fate throws them together on a job that goes horribly wrong and they're trapped on an out-of-control roller coaster ride, through the twilight zone of sex-for-sale. X is a sizzling adults-only thriller about love, chance, escape and the oldest profession experienced by two women, on a night that will change their lives forever. 

Format                           : Matroska
File size                        : 1.03 GiB
Duration                         : 1h 29mn
Overall bit rate                 : 1 651 Kbps
Encoded date                     : UTC 2011-09-28 08:28:28
Writing application              : mkvmerge v4.9.1 ('Ich will') creado el Jul 11 2011 23:53:15
Writing library                  : libebml v1.2.1 + libmatroska v1.1.1

Video
ID                               : 1
Format                           : AVC
Format/Info                      : Advanced Video Codec
Format profile                   : Main@L3.0
Format settings, CABAC           : Yes
Format settings, ReFrames        : 4 frames
Muxing mode                      : Container profile=Unknown@3.0
Codec ID                         : V_MPEG4/ISO/AVC
Duration                         : 1h 29mn
Bit rate                         : 1 170 Kbps
Nominal bit rate                 : 1 200 Kbps
Width                            : 720 pixels
Height                           : 340 pixels
Display aspect ratio             : 2.2:1
Frame rate mode                  : Variable
Frame rate                       : 29.970 fps
Resolution                       : 8 bits
Colorimetry                      : 4:2:0
Scan type                        : Progressive
Bits/(Pixel*Frame)               : 0.160
Stream size                      : 750 MiB (71%)
Writing library                  : x264 core 112

Audio
ID                               : 2
Format                           : AC-3
Format/Info                      : Audio Coding 3
Codec ID                         : A_AC3
Duration                         : 1h 29mn
Bit rate mode                    : Constant
Bit rate                         : 448 Kbps
Channel(s)                       : 6 channels
Channel positions                : Front: L C R, Side: L R, LFE
Sampling rate                    : 48.0 KHz
Stream size                      : 288 MiB (27%)

Text #1
ID                               : 3
Format                           : VobSub
Codec ID                         : S_VOBSUB
Codec ID/Info                    : The same subtitle format used on DVDs
Language                         : Romanian

Text #2
ID                               : 4
Format                           : VobSub
Codec ID                         : S_VOBSUB
Codec ID/Info                    : The same subtitle format used on DVDs
Language                         : English

Recommended media player :VLC media player....http://www.videolan.org/vlc/